<svg xmlns="http://www.w3.org/2000/svg" xmlns:xlink="http://www.w3.org/1999/xlink" viewBox="0 0 35 35">
  <defs>
    <path id="a" d="M35 17.5C35 27.16 27.16 35 17.5 35S0 27.16 0 17.5 7.84 0 17.5 0 35 7.84 35 17.5z"/>
    <path id="b" d="M16.36 5.02c-1.58 4.1-7.49 18.69-7.96 19.66-.59 1.2-1.32 1.81-2.65 2.19-.93.26-1.02.33-1.02.82v.53h8.7v-.53c0-.56-.07-.62-1.38-.84-.94-.14-1.46-.66-1.46-1.44 0-.7 1.42-4.83 4.15-12.03 1.04-2.8 1.91-5.16 1.91-5.27 0-.82.68.83 3.03 7.35 3.89 10.81 3.68 10.13 3.44 10.64-.19.42-.68.64-1.97.92-.43.09-.53.22-.53.66v.54h9.65v-.54c0-.44-.09-.57-.51-.66-.3-.06-.7-.15-.91-.2-.74-.19-1.59-.99-2.04-1.92-.53-1.06-3.14-7.97-6.3-16.66-2.12-5.76-2.12-5.77-2.99-5.45-.42.55-.8 1.3-1.16 2.23z"/>
  </defs>
  <use xlink:href="#a"/>
  <use fill="#fff" xlink:href="#b"/>
  <use fill-opacity="0" stroke="#000" stroke-opacity="0" xlink:href="#b"/>
</svg>
