<svg xmlns="http://www.w3.org/2000/svg" viewBox="0 0 42.439 50">
  <path fill="#f1f1f3" d="M42.184 35.604l-19.292-34.6a1.911 1.911 0 00-3.363 0L.245 35.604a1.914 1.914 0 00.686 2.581l19.314 11.55a2.028 2.028 0 002.006 0l19.284-11.531a1.956 1.956 0 00.649-2.6m-14.58-13.945l-.472-.4-.03-.03a4.7 4.7 0 00-.472-.339l-.029-.03c-.155-.1-.317-.214-.5-.317-.029 0-.029-.029-.052-.029a4.671 4.671 0 00-.5-.266c-.03 0-.03-.029-.052-.029-.155-.081-.339-.155-.524-.236-.03 0-.03-.03-.052-.03-.155-.052-.317-.133-.472-.184a8.062 8.062 0 00-1.313-.369 6.581 6.581 0 01-1.342 1.733 7.448 7.448 0 012.316.553 8.932 8.932 0 011.209.634.074.074 0 01.052.03 1.812 1.812 0 01.288.214.541.541 0 01.133.1 1.688 1.688 0 01.266.214c.052.052.1.081.155.133.081.081.155.133.236.214l.155.155.214.214.155.155a1.839 1.839 0 00.184.214c.052.059.1.133.155.184l.155.236a1.126 1.126 0 01.133.214l.155.236a1.809 1.809 0 00.133.214c.052.081.081.155.133.236s.081.155.133.236c.03.081.081.155.1.236a2.7 2.7 0 00.133.288 6.793 6.793 0 01.45 1.681l.236.922c.1.4 1.055 3.761 3.26 4.9 2.53 1.313 5.87 2.95 7.183 3.577l-17.33 10.369v-7.1c0-1.128 2.234-2.448 3.26-2.891l.052-.029c.214-.1.42-.214.634-.339l.081-.052a8.126 8.126 0 001.261-.922c.03-.029.081-.052.1-.1.052-.029.081-.081.133-.1.133-.1.236-.236.369-.339l.052-.052a2.842 2.842 0 00.369-.42c.03-.052.081-.081.1-.133a4.024 4.024 0 00.288-.369c.029-.03.052-.081.081-.1l.317-.472c0-.029.029-.029.029-.052.133-.214.266-.45.4-.656a10.207 10.207 0 01-1.239-1.947 7.154 7.154 0 01-.5 1.128c-.081.155-.184.317-.265.472-.03.029-.03.052-.052.052a3.988 3.988 0 01-.265.369c-.03.03-.052.081-.081.1a1.84 1.84 0 01-.288.339c-.03.03-.03.052-.052.052a7.357 7.357 0 01-2.264 1.733l-.155.081c-.45.184-4.314 1.947-4.314 4.6v7.1L2.87 37.104a37.309 37.309 0 017.08-3.473c1.055-.339 3.289 1.077 4.55 2.1l.081.081a4.418 4.418 0 00.524.45l.052.052a7.465 7.465 0 001.291.87l.317.155a.074.074 0 01.052.03c.288.155.575.288.892.42a.984.984 0 00.133.052c.029 0 .052.029.1.029.45.155.892.288 1.342.4a6.534 6.534 0 011.372-1.733 7.539 7.539 0 01-2.161-.472c-.029-.03-.081-.03-.1-.052a1.1 1.1 0 01-.236-.1c-.029-.03-.081-.03-.1-.052-.081-.029-.155-.081-.214-.1a7.521 7.521 0 01-1.445-.922l-.686-.634a12.984 12.984 0 00-2.05-1.475c-1.711-.973-3.156-1.291-4.263-.944a36.406 36.406 0 00-6.475 3.053l17.338-31.15v13.658c0 .472-.708 1.733-3.1 2.817l-.155.081a7.783 7.783 0 00-.686.369l-.052.03a10.1 10.1 0 00-1.291.922 5.7 5.7 0 00-.708.686l-.029.03a5.41 5.41 0 00-.634.737l-.03.029c-.1.133-.184.266-.288.4 0 .029-.03.029-.03.052-.081.133-.155.236-.236.369 0 .029-.029.029-.029.052l-.236.4c-.03.029-.03.052-.052.1-.081.133-.133.265-.184.369a.074.074 0 01-.03.052c-.052.133-.1.236-.155.369a.982.982 0 00-.052.133l-.155.4a.984.984 0 00-.052.133 1.5 1.5 0 01-.1.288 1.269 1.269 0 00-.052.155c-.03.133-.081.266-.1.369a1.717 1.717 0 00-.052.184c-.029.081-.029.184-.052.266s-.03.155-.052.236c-.03.1-.03.214-.052.317 0 .081-.03.133-.03.214 0 .1-.03.184-.03.288a.955.955 0 01-.029.288v.4a9.044 9.044 0 00.1 1.423 10.4 10.4 0 012.161.819 7.9 7.9 0 01-.339-2.131v-.133a3.12 3.12 0 01.029-.524v-.133a3.236 3.236 0 01.052-.45v-.052c.03-.155.052-.317.081-.5 0-.052.03-.081.03-.133.029-.133.081-.265.1-.4 0-.029.029-.052.029-.081l.155-.472c.03-.029.03-.081.052-.1.052-.133.1-.265.155-.369.03-.029.03-.052.052-.1a2.578 2.578 0 01.236-.42.5.5 0 00.052-.081c.081-.133.133-.236.214-.369a.494.494 0 00.052-.081 4.491 4.491 0 01.288-.4.029.029 0 01.03-.03l.288-.369a.5.5 0 00.052-.081 8.235 8.235 0 011.608-1.372l.819-.4c.45-.184 4.292-2 4.292-4.661V3.658l17.5 31.416c-1.556-.76-4.314-2.131-6.445-3.237-1.239-.634-2.05-2.869-2.286-3.687l-.236-.944a5.075 5.075 0 00-.288-1.5 9.7 9.7 0 00-2.751-4.049"/>
</svg>
