<svg xmlns="http://www.w3.org/2000/svg" viewBox="0 0 100 100">
  <defs>
    <style>
      .cls-2{fill:#fec478}.cls-3{fill:#feb756}
    </style>
  </defs>
  <g id="Group_13850" data-name="Group 13850" transform="translate(-676 -267)">
    <circle id="Ellipse_1020" cx="50" cy="50" r="50" fill="#b55ba0" data-name="Ellipse 1020" transform="translate(676 267)"/>
    <g id="Group_13849" data-name="Group 13849" transform="translate(694.75 289.5)">
      <path id="Path_6252" d="M212.6 116.249h-17.689a12.7 12.7 0 01-9.116-3.8l-4.134-4.134a1.73 1.73 0 01-.554-1.292V84.63a1.827 1.827 0 011.845-1.845h3.691l5.832-5.869a17.554 17.554 0 005.241-12.586 3.691 3.691 0 117.382 0v2.805a38.618 38.618 0 01-2.362 13.176l-.923 2.473h10.015l.3 12.6z" class="cls-2" data-name="Path 6252" transform="translate(-158.838 -60.639)"/>
      <path id="Path_6253" d="M212.6 363.506h-17.689a12.7 12.7 0 01-9.116-3.8l-4.134-4.134a1.73 1.73 0 01-.554-1.292v-11.64h31.016z" class="cls-3" data-name="Path 6253" transform="translate(-158.838 -307.896)"/>
      <path id="Path_6254" d="M375.3 257.118a4.233 4.233 0 014.134 4.257 4.135 4.135 0 01-4.134 4.171h-3.7a4.152 4.152 0 010 8.3h-6.619a4.152 4.152 0 010-8.3 4.135 4.135 0 01-4.134-4.171 4.234 4.234 0 014.134-4.257 4.127 4.127 0 01-4.134-4.134 4.242 4.242 0 014.134-4.294 4.152 4.152 0 010-8.3H375.3a4.152 4.152 0 010 8.3 4.242 4.242 0 014.134 4.294 4.127 4.127 0 01-4.134 4.134z" class="cls-2" data-name="Path 6254" transform="translate(-316.438 -218.24)"/>
      <path id="Path_6255" d="M379.43 351.032a4.135 4.135 0 01-4.13 4.168h-3.7a4.152 4.152 0 010 8.3h-6.619a4.152 4.152 0 010-8.3 4.135 4.135 0 01-4.134-4.171 4.234 4.234 0 014.134-4.257 4.127 4.127 0 01-4.134-4.134h18.583a4.127 4.127 0 01-4.134 4.134 4.234 4.234 0 014.134 4.26z" class="cls-3" data-name="Path 6255" transform="translate(-316.438 -307.897)"/>
      <path id="Path_6256" fill="#b6509e" d="M130.418 210.428h-7.382a1.827 1.827 0 00-1.845 1.845v29.773a1.828 1.828 0 001.845 1.845h7.382a1.828 1.828 0 001.845-1.845v-29.773a1.827 1.827 0 00-1.845-1.845z" data-name="Path 6256" transform="translate(-106.304 -191.973)"/>
      <path id="Path_6257" fill="#9d4789" d="M121.191 342.64h11.073v15.33a1.828 1.828 0 01-1.845 1.845h-7.382a1.828 1.828 0 01-1.845-1.845z" data-name="Path 6257" transform="translate(-106.304 -307.896)"/>
      <path id="Path_6258" fill="#2ebac6" d="M17.094 180.47H2.207a1.827 1.827 0 00-1.845 1.845v37.155a1.828 1.828 0 001.845 1.845h14.887a1.828 1.828 0 001.845-1.845v-37.155a1.828 1.828 0 00-1.845-1.845z" data-name="Path 6258" transform="translate(-.362 -165.706)"/>
      <path id="Path_6259" fill="#1fa1ac" d="M.362 342.64H18.94v19.02a1.828 1.828 0 01-1.845 1.845H2.207a1.828 1.828 0 01-1.845-1.845v-19.02z" data-name="Path 6259" transform="translate(-.362 -307.896)"/>
      <circle id="Ellipse_1022" cx="1.845" cy="1.845" r="1.845" fill="#cae8f9" data-name="Ellipse 1022" transform="translate(7.505 44.538)"/>
    </g>
  </g>
</svg>
