<svg xmlns="http://www.w3.org/2000/svg" viewBox="0 0 160 160">
  <g id="Group_13850" data-name="Group 13850" transform="translate(-676 -267)">
    <circle id="Ellipse_1020" cx="80" cy="80" r="80" fill="rgba(182,80,158,.1)" data-name="Ellipse 1020" transform="translate(676 267)"/>
    <g id="Group_13849" data-name="Group 13849" transform="translate(-15.93 15.85)">
      <path id="Path_6252" d="M231.5 149.62h-28.3a20.32 20.32 0 0 1-14.6-6.09l-6.6-6.61a2.77 2.77 0 0 1-.9-2.07V99.03a2.92 2.92 0 0 1 2.96-2.96h5.9l9.34-9.39a28.09 28.09 0 0 0 8.38-20.14 5.9 5.9 0 0 1 11.81 0v4.5a61.79 61.79 0 0 1-3.78 21.07l-1.47 3.96h16.02l.47 20.16z" fill="#fec478" data-name="Path 6252" transform="translate(576.45 226.5)"/>
      <path id="Path_6253" d="M231.5 376.02h-28.3a20.32 20.32 0 0 1-14.6-6.08l-6.6-6.61a2.77 2.77 0 0 1-.9-2.07v-18.62h49.63z" fill="#feb756" data-name="Path 6253" transform="translate(576.45 .1)"/>
      <path id="Path_6254" d="M383.96 267.16a6.77 6.77 0 0 1 6.62 6.8 6.62 6.62 0 0 1-6.62 6.68h-5.9a6.64 6.64 0 0 1 0 13.29h-10.6a6.64 6.64 0 0 1 0-13.29 6.62 6.62 0 0 1-6.6-6.67 6.77 6.77 0 0 1 6.6-6.81 6.6 6.6 0 0 1-6.6-6.62 6.79 6.79 0 0 1 6.6-6.87 6.64 6.64 0 0 1 0-13.28h16.5a6.64 6.64 0 0 1 0 13.28 6.79 6.79 0 0 1 6.62 6.87 6.6 6.6 0 0 1-6.62 6.62z" fill="#fec478" data-name="Path 6254" transform="translate(432.13 82.2)"/>
      <path id="Path_6255" d="M390.58 356.07a6.62 6.62 0 0 1-6.62 6.67h-5.9a6.64 6.64 0 0 1 0 13.29h-10.6a6.64 6.64 0 0 1 0-13.3 6.62 6.62 0 0 1-6.6-6.66 6.77 6.77 0 0 1 6.6-6.82 6.6 6.6 0 0 1-6.6-6.6h29.72a6.6 6.6 0 0 1-6.62 6.6 6.77 6.77 0 0 1 6.62 6.82z" fill="#feb756" data-name="Path 6255" transform="translate(432.13 .1)"/>
      <path id="Path_6256" fill="#b6509e" d="M135.96 210.43h-11.82a2.92 2.92 0 0 0-2.95 2.95v47.64a2.92 2.92 0 0 0 2.95 2.95h11.82a2.92 2.92 0 0 0 2.95-2.95v-47.64a2.92 2.92 0 0 0-2.95-2.95z" data-name="Path 6256" transform="translate(624.55 106.25)"/>
      <path id="Path_6257" fill="#9d4789" d="M121.2 342.64h17.7v24.53a2.92 2.92 0 0 1-2.95 2.95h-11.8a2.92 2.92 0 0 1-2.96-2.95z" data-name="Path 6257" transform="translate(624.55 .1)"/>
      <path id="Path_6258" fill="#2ebac6" d="M27.13 180.47H3.32a2.92 2.92 0 0 0-2.96 2.95v59.45a2.92 2.92 0 0 0 2.96 2.95h23.81a2.92 2.92 0 0 0 2.96-2.95v-59.45a2.92 2.92 0 0 0-2.96-2.95z" data-name="Path 6258" transform="translate(721.56 130.3)"/>
      <path id="Path_6259" fill="#1fa1ac" d="M.36 342.64H30.1v30.43a2.92 2.92 0 0 1-2.96 2.96H3.32a2.92 2.92 0 0 1-2.96-2.96v-30.43z" data-name="Path 6259" transform="translate(721.56 .1)"/>
      <circle id="Ellipse_1022" cx="2.95" cy="2.95" r="2.95" fill="#cae8f9" data-name="Ellipse 1022" transform="translate(733.93 358.4)"/>
    </g>
  </g>
</svg>
