<svg xmlns="http://www.w3.org/2000/svg" width="12" height="12" viewBox="0 0 12 12">
    <defs>
        <style>
            .cls-1{fill:#b6509e}
        </style>
    </defs>
    <g id="share">
        <path id="Path_6176" d="M159.681 0h-3.116a.312.312 0 1 0 0 .625h2.366l-6.078 6.137a.313.313 0 0 0 .444.44l6.072-6.13v2.356a.313.313 0 0 0 .625 0V.312a.312.312 0 0 0-.313-.312zm0 0" class="cls-1" data-name="Path 6176" transform="translate(-147.993)"/>
        <path id="Path_6177" d="M10.129 55.008a.312.312 0 0 0-.312.312v3.422a.939.939 0 0 1-.937.938H1.562a.939.939 0 0 1-.937-.937v-7.317a.939.939 0 0 1 .937-.937h3.423a.313.313 0 0 0 0-.625H1.562A1.564 1.564 0 0 0 0 51.426v7.317a1.564 1.564 0 0 0 1.562 1.562h7.317a1.564 1.564 0 0 0 1.562-1.562V55.32a.312.312 0 0 0-.312-.312zm0 0" class="cls-1" data-name="Path 6177" transform="translate(0 -48.305)"/>
    </g>
</svg>
