<svg xmlns="http://www.w3.org/2000/svg" id="error" viewBox="0 0 20 20">
  <path id="Path_6439" d="M10 0a10 10 0 1010 10A10.011 10.011 0 0010 0zm0 19.231A9.231 9.231 0 1119.231 10 9.242 9.242 0 0110 19.231z" fill="#2ebac6" data-name="Path 6439"/>
  <path id="Path_6440" d="M23.579 16.113a.384.384 0 00-.544 0l-3.19 3.19-3.19-3.19a.385.385 0 00-.544.544l3.19 3.19-3.19 3.19a.385.385 0 10.544.544l3.19-3.19 3.19 3.19a.385.385 0 00.544-.544l-3.19-3.19 3.19-3.19a.384.384 0 000-.544z" fill="#2ebac6" data-name="Path 6440" transform="translate(-9.846 -9.846)"/>
</svg>
