<svg xmlns="http://www.w3.org/2000/svg" viewBox="0 0 20 20">
  <path fill="#f1f1f3" d="M10 20A10 10 0 016.108.786a10 10 0 017.785 18.428A9.937 9.937 0 0110 20zm-5.525-5.54a6.773 6.773 0 003.664 1.074 6.886 6.886 0 002.917-.618 6.434 6.434 0 002.132-1.6 7.036 7.036 0 001.752-4.585c0-.106 0-.21-.007-.309a4.82 4.82 0 001.193-1.237 4.785 4.785 0 01-1.373.376A2.394 2.394 0 0015.8 6.24a4.78 4.78 0 01-1.518.58A2.392 2.392 0 0010.212 9a6.731 6.731 0 01-2.766-.744A6.782 6.782 0 015.285 6.5a2.393 2.393 0 00.739 3.191 2.39 2.39 0 01-1.083-.3v.03a2.4 2.4 0 001.919 2.348 2.373 2.373 0 01-.63.084 2.413 2.413 0 01-.45-.042 2.39 2.39 0 002.233 1.66 4.767 4.767 0 01-2.969 1.023 4.826 4.826 0 01-.569-.034z" data-name="Subtraction 68"/>
</svg>
