<svg xmlns="http://www.w3.org/2000/svg" width="20" height="19.511" viewBox="0 0 20 19.511">
    <g id="prefix__github-logo" transform="translate(0 -5.365)">
        <path id="prefix__Path_7370" d="M18.659 10.345a9.956 9.956 0 0 0-3.639-3.639A9.781 9.781 0 0 0 10 5.365a9.782 9.782 0 0 0-5.02 1.341 9.955 9.955 0 0 0-3.639 3.639A9.782 9.782 0 0 0 0 15.365a9.718 9.718 0 0 0 1.908 5.879 9.794 9.794 0 0 0 4.928 3.613.583.583 0 0 0 .521-.091.509.509 0 0 0 .169-.39l-.007-.7q-.007-.661-.007-1.159l-.3.052a3.82 3.82 0 0 1-.723.046 5.506 5.506 0 0 1-.9-.091 2.022 2.022 0 0 1-.872-.39 1.652 1.652 0 0 1-.573-.8l-.13-.3a3.254 3.254 0 0 0-.41-.664 1.571 1.571 0 0 0-.566-.495l-.091-.065a.956.956 0 0 1-.169-.156.714.714 0 0 1-.117-.182q-.039-.091.065-.15a.844.844 0 0 1 .378-.058l.26.039A1.9 1.9 0 0 1 4 19.61a2.1 2.1 0 0 1 .631.677 2.3 2.3 0 0 0 .723.814 1.533 1.533 0 0 0 .853.28 3.7 3.7 0 0 0 .742-.065 2.59 2.59 0 0 0 .586-.2 2.11 2.11 0 0 1 .638-1.341 8.915 8.915 0 0 1-1.335-.234 5.314 5.314 0 0 1-1.224-.508 3.505 3.505 0 0 1-1.048-.872 4.192 4.192 0 0 1-.68-1.361 6.5 6.5 0 0 1-.267-1.953 3.8 3.8 0 0 1 1.029-2.682 3.5 3.5 0 0 1 .091-2.656 1.825 1.825 0 0 1 1.12.176 7.829 7.829 0 0 1 1.087.5q.345.208.553.352a9.4 9.4 0 0 1 5 0l.495-.312a7.007 7.007 0 0 1 1.2-.573 1.706 1.706 0 0 1 1.055-.143 3.467 3.467 0 0 1 .1 2.656 3.8 3.8 0 0 1 1.029 2.682 6.574 6.574 0 0 1-.267 1.959 4.029 4.029 0 0 1-.69 1.367 3.64 3.64 0 0 1-1.055.866 5.324 5.324 0 0 1-1.224.508 8.906 8.906 0 0 1-1.335.235 2.319 2.319 0 0 1 .677 1.849v2.747a.519.519 0 0 0 .163.39.566.566 0 0 0 .514.091 9.793 9.793 0 0 0 4.928-3.613A9.72 9.72 0 0 0 20 15.364a9.79 9.79 0 0 0-1.341-5.019z" data-name="Path 7370" style="fill:#e1e1e1"/>
    </g>
</svg>
